<svg height="512" viewBox="0 0 512 512" width="512" xmlns="http://www.w3.org/2000/svg"><g id="Flat"><path d="m284.971 28.971a16.972 16.972 0 0 0 -12-4.971h-1.942a16.972 16.972 0 0 0 -12 4.971l-22.745 22.745a16.972 16.972 0 0 0 -4.884 10.312l-6.6 65.972a16.971 16.971 0 0 0 4.887 13.689l43.646 43.646 22.667-25.335-37-36.5 5-51.5 12-12a16.971 16.971 0 0 0 0 24 16.971 16.971 0 0 0 24 0l8-8a16.971 16.971 0 0 0 0-24z" fill="#fa9f0c"/><path d="m483.029 227.745-23.029-23.029a16.97 16.97 0 0 0 -24 0l-8 8a16.971 16.971 0 0 0 24 24l-12 12-51.5 5-31.858-32.358-28.333 19.667 42 42a16.971 16.971 0 0 0 13.691 4.891l65.97-6.6a16.977 16.977 0 0 0 10.312-4.887l22.745-22.746a16.968 16.968 0 0 0 4.971-12v-1.941a16.97 16.97 0 0 0 -4.969-11.997z" fill="#fa9f0c"/><path d="m464 176-31.15 31.15a169.682 169.682 0 0 1 -136.85 48.85l-40-40q-.555-5.595-.74-11.18a169.645 169.645 0 0 1 49.59-125.67l31.15-31.15 105.71 105.71z" fill="#ffb531"/><path d="m330.343 87.6-8.522 8.522c-1.171 1.171-2.34 2.381-3.475 3.595l11.689 10.925c1.013-1.083 2.056-2.162 3.1-3.206l8.522-8.522z" fill="#ffc361"/><path d="m280.009 183.132 15.9 1.736a129.11 129.11 0 0 1 24.991-63.325l-12.8-9.589a145.09 145.09 0 0 0 -28.091 71.178z" fill="#ffc361"/><path d="m131.147 267.716h169.706v56.569h-169.706z" fill="#fa9f0c" transform="matrix(.707 -.707 .707 .707 -146.039 239.431)"/><path d="m185.94 400a33.846 33.846 0 0 1 -9.94 24l-8 8-36.48-36.48-51.52-51.52 8-8a33.95 33.95 0 0 1 48 0l40 40a2.291 2.291 0 0 1 .21.23 33.812 33.812 0 0 1 9.73 23.77z" fill="#ffb531"/><path d="m184 448-40 40-120-120 40-40 87.08 87.08z" fill="#92563a"/><path d="m193.373 393.373-25.373-25.373 96-96 25.373 25.373a32 32 0 0 1 0 45.254l-50.746 50.746a32 32 0 0 1 -45.254 0z" fill="#feb784"/><path d="m213.657 221.657 44.686 44.686a19.315 19.315 0 0 1 5.657 13.657 19.315 19.315 0 0 1 -5.657 13.657l-68.686 68.686a19.315 19.315 0 0 1 -13.657 5.657 19.315 19.315 0 0 1 -13.657-5.657l-44.686-44.686a19.315 19.315 0 0 1 -5.657-13.657 19.315 19.315 0 0 1 5.657-13.657l68.686-68.686a19.315 19.315 0 0 1 13.657-5.657 19.315 19.315 0 0 1 13.657 5.657z" fill="#fec9a3"/><g fill="#feb784"><path d="m212 236.402h16v79.196h-16z" transform="matrix(.707 -.707 .707 .707 -130.725 236.402)"/><path d="m188 260.402h16v79.196h-16z" transform="matrix(.707 -.707 .707 .707 -154.725 226.461)"/><path d="m164 284.402h16v79.196h-16z" transform="matrix(.707 -.707 .707 .707 -178.725 216.52)"/></g><path d="m248 256-48 48 3.6 3.6a35.185 35.185 0 0 0 44.4 4.4 35.185 35.185 0 0 0 4.4 44.4l11.6 11.6 25.373-25.373a32 32 0 0 0 0-45.254z" fill="#ffd5b8"/><path d="m464 488h-160l-40-40 80-80z" fill="#4d5e78"/><path d="m227.431 359.716h113.137v56.569h-113.137z" fill="#e0e0de" transform="matrix(.707 -.707 .707 .707 -191.176 314.461)"/><path d="m256 400h16v16h-16z" fill="#4d5e78"/><path d="m128 56a50.6 50.6 0 0 0 32-32 50.6 50.6 0 0 0 32 32 50.6 50.6 0 0 0 -32 32 50.6 50.6 0 0 0 -32-32z" fill="#ffb531"/><path d="m184 448-40 40-33.26-33.26 40.34-39.66z" fill="#804a32"/><path d="m464 176-31.15 31.15a169.682 169.682 0 0 1 -136.85 48.85l-40-40q-.555-5.595-.74-11.18c61.74-4.22 125.42-19.6 186.45-51.11z" fill="#fcac1f"/><path d="m185.94 400a33.846 33.846 0 0 1 -9.94 24l-8 8-36.48-36.48q22.515-8.52 44.69-19.29a33.812 33.812 0 0 1 9.73 23.77z" fill="#fcac1f"/><path d="m464 488h-160l-26.32-26.32h160z" fill="#485870"/></g></svg>